:SAMPLES-PER-SECOND 30
:FRAME-RANGE 1-2045
:FULLY-SPECIFIED
:DEGREES
128
root  45.1677 35.8195 11.4021 -2.8561 3.68185 5.17481
RightUpLeg  -20.0011 7.90677 -11.142
RightLeg  53.7714 -2.38921 -3.90115
RightFoot  -26.3996 1.09566 9.62986
RightToes  5.82063e-011 0 -3.6325e-017
Spine  15.5735 -0.253069 2.92856
Spine1  -0.528539 -0.0118259 0.264646
HEad  0.703278 -15.4509 -0.760018
LeftShoulder1  1.48268 -1.25076 -24.9862
LeftArm  2.89296 4.01893 -20.8153
LeftForeArm  2.05513 3.69881 -18.8421
LeftHand  0.248615 1.2812 -7.32344
RightShoulder  8.99119 15.989 39.9719
RightArm  10.7834 8.77455 12.7002
RightForeArm  -6.68729 33.1439 7.72348
RightHand  0.757925 3.88393 9.19694
LeftUpLeg  -16.0656 7.1054 18.3226
LeftLeg  20.236 -4.27385 -1.41443
LeftFoot  0.684358 2.3442 -22.0534
LeftToes  -3.90176e-010 -2.48536e-010 1.05482e-011
129
root  46.7133 35.6767 11.7773 -3.20045 0.459737 5.13458
RightUpLeg  -19.9046 9.3046 -13.3661
RightLeg  53.5751 -2.8586 -4.5513
RightFoot  -26.1665 1.39858 12.0813
RightToes  5.82063e-011 0 -3.6325e-017
Spine  16.5762 0.0820593 1.83327
Spine1  -1.21881 0.118468 0.660403
HEad  -0.0153394 -14.5626 -0.600011
LeftShoulder1  1.44972 -1.08203 -25.4317
LeftArm  1.34716 6.71353 -21.1965
LeftForeArm  3.03049 4.33443 -18.5837
LeftHand  0.235006 1.3594 -7.08502
RightShoulder  9.40596 16.9788 39.7626
RightArm  9.21411 10.9076 11.9485
RightForeArm  -7.20384 33.0024 7.71227
RightHand  0.750556 3.80279 9.19161
LeftUpLeg  -17.7427 12.568 16.8901
LeftLeg  28.6199 -6.31828 -3.38109
LeftFoot  -4.04505 1.34625 -20.5424
LeftToes  -3.90176e-010 -2.48536e-010 1.05482e-011
130
root  48.1385 35.6798 12.0983 -3.19057 -3.01269 5.44497
RightUpLeg  -20.1889 10.9324 -15.5752
RightLeg  52.4538 -4.04439 -6.00973
RightFoot  -25.1167 1.53751 14.0829
RightToes  5.82063e-011 0 -3.6325e-017
Spine  16.6981 0.562867 0.987604
Spine1  -0.810611 0.487111 0.855323
HEad  -1.38369 -13.9914 0.380173
LeftShoulder1  1.49532 -1.10935 -26.2649
LeftArm  1.47983 6.75118 -22.1747
LeftForeArm  3.58711 4.3551 -18.5504
LeftHand  0.210453 1.42935 -6.49595
RightShoulder  9.96947 17.8714 40.4306
RightArm  7.10367 12.6138 11.4196
RightForeArm  -6.95292 32.3627 7.5253
RightHand  0.689303 3.68599 8.54038
LeftUpLeg  -18.3298 17.0173 15.1263
LeftLeg  33.6155 -6.606 -4.35251
LeftFoot  -6.88844 0.760518 -18.3687
LeftToes  -3.90176e-010 -2.48536e-010 1.05482e-011
131
root  49.4689 35.9767 12.3993 -2.78518 -7.66313 5.9157
RightUpLeg  -21.0276 12.0722 -17.6476
RightLeg  49.7292 -5.64905 -7.44853
RightFoot  -22.5152 1.25912 14.3727
RightToes  5.82063e-011 0 -3.6325e-017
Spine  16.8632 0.787111 1.69266
Spine1  -1.03012 1.3758 -2.34476
HEad  -2.04428 -12.9266 0.616756
LeftShoulder1  1.49871 -1.02952 -26.9322
LeftArm  1.33382 5.81839 -23.6096
LeftForeArm  5.015 4.42641 -18.4576
LeftHand  0.210163 1.25493 -6.17972
RightShoulder  10.7609 18.8957 41.7325
RightArm  6.16091 13.3043 11.745
RightForeArm  -7.63698 31.1312 7.23461
RightHand  0.644613 3.62955 8.02627
LeftUpLeg  -17.4017 19.8001 13.1471
LeftLeg  34.8661 -4.70639 -3.15303
LeftFoot  -8.89966 0.426677 -17.417
LeftToes  -3.90176e-010 -2.48536e-010 1.05482e-011
132
root  50.7796 36.3827 12.6521 -1.79773 -11.59 5.25735
RightUpLeg  -22.1834 9.38298 -18.2985
RightLeg  46.4266 -6.93364 -8.05609
RightFoot  -18.5103 0.65458 12.4171
RightToes  5.82063e-011 0 -3.6325e-017
Spine  17.1878 0.45305 3.19298
Spine1  -2.2143 1.45129 -3.29675
HEad  -1.54764 -11.0237 0.183604
LeftShoulder1  1.52471 -0.933578 -28.2698
LeftArm  -1.66476 5.05425 -24.8472
LeftForeArm  8.11644 4.53388 -17.9352
LeftHand  0.240801 0.806197 -6.28184
RightShoulder  11.2851 19.6125 42.4464
RightArm  7.54632 13.6736 13.4588
RightForeArm  -9.679 29.825 7.00228
RightHand  0.662061 3.69877 8.18162
LeftUpLeg  -17.1844 20.0654 11.7809
LeftLeg  35.0856 -1.6548 -0.882313
LeftFoot  -10.1847 0.237416 -17.3928
LeftToes  -3.90176e-010 -2.48536e-010 1.05482e-011
133
root  51.8661 36.8738 12.884 -0.838654 -15.6681 4.12164
RightUpLeg  -23.1034 4.10955 -17.2974
RightLeg  42.6811 -8.32574 -8.42718
RightFoot  -13.5168 0.0995446 10.063
RightToes  5.82063e-011 0 -3.6325e-017
Spine  17.5989 0.228679 4.39088
Spine1  -2.98829 1.48255 -3.60855
HEad  -1.52252 -8.80528 -0.26476
LeftShoulder1  1.55567 -0.936865 -28.9571
LeftArm  -3.94882 3.82184 -26.7668
LeftForeArm  11.0977 2.96755 -17.4102
LeftHand  0.264658 0.336656 -6.17943
RightShoulder  11.8032 20.1961 43.3492
RightArm  10.5763 13.6705 15.1853
RightForeArm  -11.6107 29.0266 6.89667
RightHand  0.726907 3.89714 8.79798
LeftUpLeg  -15.984 19.7928 11.6279
LeftLeg  33.8568 -0.350699 0.108558
LeftFoot  -10.7325 0.158197 -17.6199
LeftToes  -3.90176e-010 -2.48536e-010 1.05482e-011
134
root  52.7258 37.3606 13.0726 0.154467 -19.9522 2.81671
RightUpLeg  -24.1287 -3.92694 -14.9366
RightLeg  38.9859 -8.26868 -7.38221
RightFoot  -9.1761 -0.244192 9.59232
RightToes  5.82063e-011 0 -3.6325e-017
Spine  17.4948 0.187222 4.74729
Spine1  -2.75624 1.50492 -3.44658
HEad  -1.95596 -6.38136 -0.204897
LeftShoulder1  1.5996 -1.06976 -28.9
LeftArm  -5.28918 1.78525 -28.874
LeftForeArm  13.0256 1.39744 -16.9572
LeftHand  0.282755 -0.171385 -5.92678
RightShoulder  12.4259 20.7707 44.6139
RightArm  14.2922 13.5929 16.3169
RightForeArm  -12.0042 28.4209 6.76506
RightHand  0.821735 4.20391 9.63417
LeftUpLeg  -13.6836 17.4783 12.9512
LeftLeg  31.3979 -2.88054 -1.54425
LeftFoot  -11.4691 0.047639 -18.3862
LeftToes  -3.90176e-010 -2.48536e-010 1.05482e-011
135
root  53.3975 37.6955 13.2346 1.31634 -24.0141 1.86971
RightUpLeg  -25.9367 -12.5974 -11.8615
RightLeg  36.5613 -4.50902 -3.84361
RightFoot  -9.1453 -0.296205 12.1561
RightToes  5.82063e-011 0 -3.6325e-017
Spine  16.8739 0.322804 4.00051
Spine1  -2.45076 1.43721 -2.75198
HEad  -2.13012 -4.22087 0.281835
LeftShoulder1  1.64971 -1.2647 -28.5148
LeftArm  -4.89453 -1.46978 -30.1653
LeftForeArm  13.7865 0.394524 -16.8275
LeftHand  0.275874 -0.384517 -5.54194
RightShoulder  12.8922 21.0557 45.7974
RightArm  17.5542 12.8259 17.3736
RightForeArm  -11.9522 27.8562 6.62376
RightHand  0.851849 4.49445 9.68239
LeftUpLeg  -11.278 14.1573 14.5871
LeftLeg  28.5752 -7.12946 -3.85096
LeftFoot  -12.6004 -0.140755 -19.4688
LeftToes  -3.90176e-010 -2.48536e-010 1.05482e-011
136
root  53.9118 37.9048 13.3803 2.35917 -28.042 1.26478
RightUpLeg  -28.4301 -17.1653 -9.14305
RightLeg  36.6517 -4.51343 -3.859
RightFoot  -10.3649 -0.18678 13.5585
RightToes  5.82063e-011 0 -3.6325e-017
Spine  16.2197 0.461473 3.16491
Spine1  -2.47992 1.45766 -2.67556
HEad  -1.78494 -2.39062 1.03868
LeftShoulder1  1.66636 -1.37326 -28.0766
LeftArm  -5.28226 -6.04287 -30.3305
LeftForeArm  14.8254 0.998196 -16.8869
LeftHand  0.237201 -0.182725 -4.95872
RightShoulder  13.0672 20.6986 47.1546
RightArm  20.2745 11.646 18.0536
RightForeArm  -12.5582 27.2965 6.51693
RightHand  0.832894 4.5574 9.39764
LeftUpLeg  -8.69613 11.7067 16.1016
LeftLeg  25.3156 -8.8569 -4.21215
LeftFoot  -12.837 -0.199038 -20.8898
LeftToes  -3.90176e-010 -2.48536e-010 1.05482e-011
137
root  54.329 37.9543 13.5161 3.18673 -32.0428 1.03425
RightUpLeg  -31.1464 -18.5904 -7.5134
RightLeg  38.4083 -8.03408 -7.04297
RightFoot  -10.9554 -0.112114 11.0918
RightToes  5.82063e-011 0 -3.6325e-017
Spine  15.6933 0.519684 2.48143
Spine1  -2.84933 1.51103 -3.15934
HEad  -1.20371 -0.599718 1.71776
LeftShoulder1  1.63786 -1.3486 -27.6512
LeftArm  -6.76282 -11.1956 -29.6913
LeftForeArm  15.0472 2.38833 -16.9689
LeftHand  0.193739 0.23353 -4.43199
RightShoulder  12.9429 19.9896 48.1488
RightArm  22.081 10.01 18.4785
RightForeArm  -13.7013 26.9357 6.4842
RightHand  0.814283 4.27184 9.47302
LeftUpLeg  -6.30665 11.7347 17.3482
LeftLeg  22.7207 -9.44553 -3.99073
LeftFoot  -12.7191 -0.19388 -22.1625
LeftToes  -3.90176e-010 -2.48536e-010 1.05482e-011
